<?xml version="1.0" encoding="UTF-8"?>
<svg version="1.1" xmlns="http://www.w3.org/2000/svg" width="250" height="250">
<path d="M0 0 C3.60147854 1.20049285 4.33704213 2.4333722 6.5625 5.4375 C8.30631954 7.77384317 9.93748351 9.93748351 12 12 C11.66083005 15.18819752 11.01406317 17.95781049 10 21 C9.30850287 28.01699551 9.45012024 34.3255761 14 40 C19.59569551 45.1518062 26.74256131 46.51222507 34 48 C34.93280396 52.19356217 34.82722464 55.0803862 33 59 C27.91131614 63.25258283 21.76431532 66.13989183 15.84179688 69.05126953 C14.03462581 69.8637722 14.03462581 69.8637722 13 71 C14.14597656 71.56847656 15.29195312 72.13695312 16.47265625 72.72265625 C37.97831848 83.58324066 44.57627444 98.7981959 52.05957031 121.08789062 C54.61130156 128.98951324 56.83639534 136.98482819 59 145 C61.00244571 139.88708862 62.76620749 134.71674127 64.453125 129.4921875 C64.91267267 128.07809648 65.37231012 126.66403464 65.83203125 125.25 C66.53916188 123.07361448 67.24316541 120.89648013 67.93701172 118.71582031 C74.1178697 99.33060264 81.30065903 83.40312323 99.9609375 73.3984375 C103 72 103 72 106 72 C103.86242476 69.69520515 101.75491625 68.13542833 99.0234375 66.58984375 C98.270625 66.15736328 97.5178125 65.72488281 96.7421875 65.27929688 C95.15647394 64.38046419 93.57053421 63.4820304 91.984375 62.58398438 C91.23414063 62.15279297 90.48390625 61.72160156 89.7109375 61.27734375 C89.02306152 60.88796631 88.33518555 60.49858887 87.62646484 60.09741211 C86 59 86 59 85 57 C84.93049459 55.45976004 84.91547643 53.91665012 84.9375 52.375 C84.94652344 51.55773437 84.95554687 50.74046875 84.96484375 49.8984375 C84.97644531 49.27195313 84.98804688 48.64546875 85 48 C85.7734375 47.84144531 86.546875 47.68289062 87.34375 47.51953125 C98.09581927 45.11764577 98.09581927 45.11764577 106.375 38.25 C109.84713293 32.27021551 110.02918413 25.96971021 108.31640625 19.36328125 C107.60951636 17.20878911 106.85242671 15.10062296 106 13 C107.24839573 11.58191941 108.49879221 10.16560005 109.75 8.75 C110.44609375 7.96109375 111.1421875 7.1721875 111.859375 6.359375 C113.84586916 4.16988144 115.89101308 2.07098715 118 0 C118.95681629 1.71855352 119.88908912 3.4507686 120.8125 5.1875 C121.33457031 6.15042969 121.85664063 7.11335938 122.39453125 8.10546875 C127.76930225 20.08395288 127.47474441 32.84441219 127.5625 45.6875 C127.80113353 72.58559663 131.05484301 95.83698659 141.21557617 120.88793945 C141.96626652 122.90917264 142.52130128 124.89949022 143 127 C137.15860669 122.67736895 131.43665242 118.21866176 125.74951172 113.69604492 C122.53314402 111.10810012 122.53314402 111.10810012 119 109 C118.72599365 109.72469482 118.4519873 110.44938965 118.16967773 111.19604492 C116.24178454 115.81759645 113.61693101 120.01461667 111.0625 124.3125 C110.25522461 125.70952148 110.25522461 125.70952148 109.43164062 127.13476562 C108.90892578 128.01455078 108.38621094 128.89433594 107.84765625 129.80078125 C107.37336182 130.60684814 106.89906738 131.41291504 106.41040039 132.2434082 C105.94496826 132.8230835 105.47953613 133.40275879 105 134 C102 134 102 134 99.6953125 131.953125 C98.42300781 130.61507812 98.42300781 130.61507812 97.125 129.25 C93.90878992 125.88625735 90.69514986 122.83427265 87 120 C80.07619832 130.26351779 73.21625155 140.49841445 67.41796875 151.4453125 C65.18932088 155.46056239 62.62242238 159.23375509 60 163 C57.08423549 160.26159343 54.94639549 157.57120118 52.8984375 154.140625 C52.33012207 153.19646729 51.76180664 152.25230957 51.17626953 151.27954102 C50.58185059 150.27979248 49.98743164 149.28004395 49.375 148.25 C48.13099211 146.18051824 46.88619511 144.11151063 45.640625 142.04296875 C44.72120117 140.5122876 44.72120117 140.5122876 43.78320312 138.95068359 C41.27185979 134.7951393 38.70706831 130.67436514 36.125 126.5625 C35.7026709 125.88928711 35.2803418 125.21607422 34.84521484 124.52246094 C33.898031 123.01420641 32.94923464 121.50696467 32 120 C27.98882653 123.42331042 23.99738884 126.86386842 20.0625 130.375 C19.29035156 131.06335938 18.51820312 131.75171875 17.72265625 132.4609375 C17.15417969 132.96882812 16.58570313 133.47671875 16 134 C12.14231222 132.71410407 11.69984466 131.32175755 9.64453125 127.87109375 C9.02255859 126.83662109 8.40058594 125.80214844 7.75976562 124.73632812 C7.11716797 123.64771484 6.47457031 122.55910156 5.8125 121.4375 C5.15830078 120.34501953 4.50410156 119.25253906 3.83007812 118.12695312 C2.21215779 115.42254614 0.60256867 112.71352277 -1 110 C-4.53964223 112.08716962 -7.74538875 114.2829855 -10.9375 116.875 C-11.80246094 117.57367188 -12.66742188 118.27234375 -13.55859375 118.9921875 C-15.56071136 120.63872903 -17.53477515 122.3100032 -19.5 124 C-22 126 -22 126 -24 126 C-22.9290666 122.63345193 -21.7564983 119.34018006 -20.4140625 116.07421875 C-12.13672576 95.89403026 -8.96813819 75.99615469 -8.76171875 54.203125 C-8.75281113 53.3031076 -8.7439035 52.40309021 -8.73472595 51.47579956 C-8.70548956 47.81040211 -8.68521113 44.14549958 -8.69458008 40.47998047 C-8.70903594 25.59570116 -6.98911809 13.40294752 0 0 Z " fill="#010101" transform="translate(66,62)"/>
<path d="M0 0 C1.64661767 1.58728009 3.25900187 3.21155042 4.8203125 4.8828125 C7.04380211 6.80939786 7.04380211 6.80939786 10.11328125 6.44140625 C13.10593867 5.5064453 14.97396442 4.5081768 17.4140625 2.5703125 C18.09082031 2.04566406 18.76757812 1.52101563 19.46484375 0.98046875 C21.21449833 -0.41324658 21.21449833 -0.41324658 22.1015625 -2.4921875 C22.7615625 -2.4921875 23.4215625 -2.4921875 24.1015625 -2.4921875 C22.80653046 1.89149596 21.11187444 5.38197848 18.6015625 9.1953125 C17.993125 10.12730469 17.3846875 11.05929688 16.7578125 12.01953125 C15.53978765 13.84944122 14.32091353 15.67878596 13.1015625 17.5078125 C12.4415625 17.5078125 11.7815625 17.5078125 11.1015625 17.5078125 C10.864375 18.06984375 10.6271875 18.631875 10.3828125 19.2109375 C8.81208553 22.02675292 6.88684786 23.98736666 4.6015625 26.2578125 C3.8075 27.05703125 3.0134375 27.85625 2.1953125 28.6796875 C0.1015625 30.5078125 0.1015625 30.5078125 -1.8984375 30.5078125 C-1.8984375 31.1678125 -1.8984375 31.8278125 -1.8984375 32.5078125 C-4.13189931 34.35245302 -6.3636934 36.06842703 -8.7109375 37.7578125 C-9.39075684 38.24926758 -10.07057617 38.74072266 -10.77099609 39.24707031 C-25.54536502 49.77289628 -25.54536502 49.77289628 -30.4296875 49.22265625 C-31.244375 48.98675781 -32.0590625 48.75085938 -32.8984375 48.5078125 C-39.01294351 46.83334531 -42.71835595 46.24970578 -48.8984375 48.5078125 C-52.48217563 49.78683628 -53.66096798 49.61422573 -57.2109375 48.0234375 C-58.45130942 47.28677759 -59.68003968 46.53027419 -60.8984375 45.7578125 C-61.5490918 45.35747803 -62.19974609 44.95714355 -62.87011719 44.54467773 C-68.78222922 40.79904926 -74.0657473 36.43404585 -79.2890625 31.79296875 C-81.86951198 29.4325756 -81.86951198 29.4325756 -84.8984375 27.5078125 C-84.8984375 26.8478125 -84.8984375 26.1878125 -84.8984375 25.5078125 C-85.46820313 25.2809375 -86.03796875 25.0540625 -86.625 24.8203125 C-94.13407227 20.48517799 -100.21166258 10.22370573 -103.8984375 2.5078125 C-104.5546875 -0.28125 -104.5546875 -0.28125 -104.8984375 -2.4921875 C-104.39054687 -2.09386719 -103.88265625 -1.69554687 -103.359375 -1.28515625 C-96.83710575 4.34151864 -96.83710575 4.34151864 -88.96875 6.30078125 C-86.3457753 5.29613245 -84.9997833 3.87453842 -83.0234375 1.8828125 C-74.2584473 -6.13377131 -63.45808264 -10.34709871 -51.8984375 -12.4921875 C-50.6403125 -12.7396875 -49.3821875 -12.9871875 -48.0859375 -13.2421875 C-31.62764752 -14.88459482 -12.73786538 -10.9525042 0 0 Z " fill="#010101" transform="translate(165.8984375,38.4921875)"/>
<path d="M0 0 C4.91479651 2.86268941 8.17252265 6.83200058 10.2890625 12.078125 C11.86928468 18.57266452 11.84716579 25.34407009 12 32 C12.76699219 32.29648438 13.53398437 32.59296875 14.32421875 32.8984375 C17.07457175 34.03069961 19.48539389 35.41939045 22 37 C20.20852189 38.86313724 18.43243305 40.66494292 16.38671875 42.25 C5.79054253 50.52018631 0.89001228 64.44780716 -2.2265625 77.13671875 C-2.60941406 78.05904297 -2.60941406 78.05904297 -3 79 C-4.485 79.495 -4.485 79.495 -6 80 C-6.37511719 78.81664062 -6.75023438 77.63328125 -7.13671875 76.4140625 C-10.74723561 65.19189698 -14.1352133 54.98832766 -22 46 C-22 45.34 -22 44.68 -22 44 C-22.556875 43.773125 -23.11375 43.54625 -23.6875 43.3125 C-26.63246684 41.64103234 -28.68156544 39.44723648 -31 37 C-29.71186658 36.16121545 -28.41936744 35.32913217 -27.125 34.5 C-26.40570313 34.0359375 -25.68640625 33.571875 -24.9453125 33.09375 C-23 32 -23 32 -21 32 C-21.02320312 31.23816406 -21.04640625 30.47632812 -21.0703125 29.69140625 C-21.26849268 18.35266908 -20.28821658 10.80414015 -12.4375 2.1875 C-8.27624242 -1.54696193 -5.27023366 -1.31755841 0 0 Z " fill="#010101" transform="translate(130,95)"/>
<path d="M0 0 C3.43086167 1.26779652 6.30886099 2.73136804 9.3125 4.8125 C12.9853639 7.33297204 16.7215548 9.67342386 20.56640625 11.921875 C21.03949219 12.27765625 21.51257813 12.6334375 22 13 C22 13.66 22 14.32 22 15 C15.38490043 17.39269559 9.54474095 17.65924044 3.0625 14.625 C1 13 1 13 -1 10 C-1.23046875 7.7734375 -1.23046875 7.7734375 -1.1875 5.375 C-1.17783203 4.18003906 -1.17783203 4.18003906 -1.16796875 2.9609375 C-1 1 -1 1 0 0 Z " fill="#040404" transform="translate(86,83)"/>
<path d="M0 0 C1.67987292 7.48458232 1.67987292 7.48458232 0.1640625 10.86328125 C-2.69633699 14.53443091 -5.47937923 16.23234742 -10 17 C-18.52545156 16.73727422 -18.52545156 16.73727422 -22 15 C-20.57663463 10.7299039 -17.41382579 9.61239797 -13.6875 7.5 C-12.33607042 6.72077419 -10.98577697 5.93957413 -9.63671875 5.15625 C-9.00169434 4.78886719 -8.36666992 4.42148438 -7.71240234 4.04296875 C-5.84617856 2.94553381 -5.84617856 2.94553381 -3.64453125 1.21875 C-2 0 -2 0 0 0 Z " fill="#030303" transform="translate(165,83)"/>
<path d="M0 0 C0.66 0.33 1.32 0.66 2 1 C1.67 1.99 1.34 2.98 1 4 C0.01 3.01 -0.98 2.02 -2 1 C-1.34 0.67 -0.68 0.34 0 0 Z M-3 2 C-2.67 2.66 -2.34 3.32 -2 4 C-3.32 4.33 -4.64 4.66 -6 5 C-5.01 4.01 -4.02 3.02 -3 2 Z M-7 5 C-7 8 -7 8 -7 8 Z " fill="#070707" transform="translate(90,35)"/>
</svg>
